<!DOCTYPE svg PUBLIC "-//W3C//DTD SVG 1.1//EN" "http://www.w3.org/Graphics/SVG/1.1/DTD/svg11.dtd">
<!-- Uploaded to: SVG Repo, www.svgrepo.com, Transformed by: SVG Repo Mixer Tools -->
<svg width="800px" height="800px" viewBox="-4.8 -4.8 57.60 57.60" xmlns="http://www.w3.org/2000/svg" fill="">
<g id="SVGRepo_bgCarrier" stroke-width="0"/>
<g id="SVGRepo_tracerCarrier" stroke-linecap="round" stroke-linejoin="round" stroke="#f293e7" stroke-width="2.4">
<title>70 Basic icons by Xicons.co</title>
<path d="M24,3A21,21,0,1,0,45,24,21,21,0,0,0,24,3Z" fill="#ffffff"/>
<path d="M32,26H16a2,2,0,0,1,0-4H32A2,2,0,0,1,32,26Z" fill="#f293e7"/>
</g>
<g id="SVGRepo_iconCarrier">
<title>70 Basic icons by Xicons.co</title>
<path d="M24,3A21,21,0,1,0,45,24,21,21,0,0,0,24,3Z" fill="#ffffff"/>
<path d="M32,26H16a2,2,0,0,1,0-4H32A2,2,0,0,1,32,26Z" fill="#f293e7"/>
</g>
</svg>